<?xml version="1.0" standalone="no"?>
<!DOCTYPE svg PUBLIC "-//W3C//DTD SVG 20010904//EN"
 "http://www.w3.org/TR/2001/REC-SVG-20010904/DTD/svg10.dtd">
<svg version="1.0" xmlns="http://www.w3.org/2000/svg"
 width="800.000000pt" height="310.000000pt" viewBox="0 0 800.000000 310.000000"
 preserveAspectRatio="xMidYMid meet">

<g transform="translate(0.000000,310.000000) scale(0.100000,-0.100000)"
fill="#000000" stroke="none">
<path d="M697 3048 c-9 -29 -167 -631 -352 -1338 -186 -707 -340 -1291 -342
-1298 -4 -10 42 -12 223 -10 l228 3 127 485 c70 267 140 531 154 588 l28 102
288 0 289 0 5 23 c4 12 27 103 54 202 l47 180 -289 3 c-268 2 -288 4 -283 20
3 9 41 157 86 327 45 171 83 318 86 328 5 16 32 17 380 17 206 0 374 2 374 4
0 2 22 91 50 197 27 107 50 200 50 207 0 9 -125 12 -594 12 l-595 0 -14 -52z"/>
<path d="M2882 1758 c-193 -739 -352 -1346 -352 -1350 0 -5 101 -8 224 -8
l223 0 47 178 c25 97 185 705 354 1350 l308 1172 -225 0 -226 0 -353 -1342z"/>
<path d="M3850 3098 c0 -2 -160 -608 -354 -1348 l-353 -1345 220 -3 c121 -1
224 1 227 5 4 5 164 604 355 1333 191 729 350 1333 353 1343 4 16 -11 17 -222
17 -124 0 -226 -1 -226 -2z"/>
<path d="M7495 2983 c-137 -57 -255 -109 -261 -116 -6 -7 -42 -127 -79 -267
-37 -140 -70 -260 -72 -267 -3 -8 -35 -13 -91 -15 l-86 -3 -32 -127 -32 -128
85 0 c76 0 84 -2 79 -17 -3 -10 -57 -214 -121 -453 -64 -239 -135 -498 -157
-575 -99 -347 -102 -455 -14 -548 53 -57 105 -71 279 -75 88 -2 187 -1 221 2
l61 7 38 147 c21 81 38 150 37 153 0 3 -30 9 -67 12 -90 8 -113 32 -113 115 0
55 22 139 270 1052 l47 175 110 3 110 3 32 118 c17 65 31 124 31 130 0 7 -34
11 -106 11 -96 0 -105 2 -100 18 3 9 46 170 96 357 50 187 95 352 100 368 6
19 6 27 -3 26 -7 -1 -124 -48 -262 -106z"/>
<path d="M7875 2978 c-38 -34 -39 -82 -1 -115 35 -30 71 -29 101 2 70 69 -25
177 -100 113z m98 -20 c25 -29 21 -63 -9 -87 -32 -25 -52 -26 -82 -5 -37 26
-26 102 18 117 23 8 53 -2 73 -25z"/>
<path d="M7901 2918 c1 -24 3 -35 6 -25 6 23 20 22 33 -4 7 -11 14 -18 17 -15
3 3 0 12 -7 21 -10 12 -10 18 0 30 16 19 4 35 -26 35 -22 0 -24 -4 -23 -42z
m47 20 c-7 -19 -38 -22 -38 -4 0 10 9 16 21 16 12 0 19 -5 17 -12z"/>
<path d="M5148 2537 c-54 -106 -188 -369 -298 -585 l-201 -392 293 2 293 3 58
225 c64 251 68 310 28 393 -27 55 -90 119 -142 142 -27 13 -38 23 -34 34 28
91 105 365 102 367 -1 2 -46 -83 -99 -189z"/>
<path d="M2140 2379 c-247 -27 -413 -123 -489 -281 -16 -35 -43 -118 -60 -184
-17 -67 -33 -129 -37 -138 -6 -15 14 -16 222 -14 l229 3 36 135 c54 204 73
230 167 230 43 0 58 -5 77 -25 37 -36 32 -98 -23 -325 l-47 -195 -175 -6
c-185 -6 -268 -21 -361 -62 -106 -47 -205 -140 -255 -238 -27 -53 -128 -401
-150 -517 -29 -154 -15 -234 55 -303 55 -55 105 -73 206 -71 127 1 268 64 373
165 23 23 42 38 42 35 0 -4 -11 -47 -24 -97 l-25 -91 231 2 231 3 210 795
c234 887 233 882 184 982 -45 92 -144 159 -277 187 -76 17 -239 22 -340 10z
m0 -1061 c0 -7 -29 -122 -64 -256 -68 -256 -85 -296 -146 -327 -47 -24 -106
-19 -137 11 -24 24 -25 30 -21 97 5 67 48 242 85 346 21 58 68 108 118 126 52
18 165 20 165 3z"/>
<path d="M4691 2379 c-102 -12 -214 -44 -283 -81 -72 -38 -161 -131 -193 -200
-19 -41 -225 -787 -225 -814 0 -5 933 1076 945 1096 7 12 -133 12 -244 -1z"/>
<path d="M5586 2303 c-8 -25 -342 -1283 -378 -1423 -23 -86 -30 -140 -32 -215
-1 -95 1 -103 30 -155 37 -66 94 -105 176 -120 116 -22 277 38 397 147 34 30
61 51 61 46 0 -4 -11 -47 -25 -96 l-24 -87 227 2 227 3 247 925 c136 509 250
940 254 958 l6 32 -224 0 -225 0 -62 -237 c-242 -923 -333 -1248 -362 -1290
-36 -51 -74 -73 -129 -73 -78 0 -104 62 -78 190 12 57 338 1307 364 1393 5 16
-10 17 -220 17 -205 0 -225 -2 -230 -17z"/>
<path d="M4829 1003 c-211 -285 -461 -623 -557 -752 -95 -128 -165 -227 -154
-220 10 8 104 92 209 188 l191 175 89 17 c171 35 307 128 368 253 25 51 250
845 242 853 -3 2 -177 -229 -388 -514z"/>
<path d="M3976 1233 c-57 -192 -128 -479 -129 -523 -1 -110 67 -208 185 -265
59 -28 194 -64 202 -54 1 2 67 175 146 384 78 209 151 401 161 428 l19 47
-289 0 c-267 0 -290 -1 -295 -17z"/>
</g>
</svg>
